<mxfile host="app.diagrams.net" modified="2023-12-17T00:57:28.494Z" agent="Mozilla/5.0 (Macintosh; Intel Mac OS X 10_15_7) AppleWebKit/537.36 (KHTML, like Gecko) Chrome/120.0.0.0 Safari/537.36" version="22.1.11" etag="EgrZgAImSWSVNj-2Y7iH" type="github">
  <diagram name="第 1 页" id="Z_xVc0XiSpYxRiNh8rdy">
    <mxGraphModel>
      <root>
        <mxCell id="0" />
        <mxCell id="1" parent="0" />
      </root>
    </mxGraphModel>
  </diagram>
</mxfile>
